<svg width="30" height="30" viewBox="0 0 30 30" fill="none" xmlns="http://www.w3.org/2000/svg">
<path d="M25.6086 21.4251L20.5274 16.8051C20.2872 16.5867 19.9715 16.4703 19.6471 16.4803C19.3227 16.4904 19.0149 16.6261 18.7886 16.8588L15.7974 19.9351C15.0774 19.7976 13.6299 19.3463 12.1399 17.8601C10.6499 16.3688 10.1986 14.9176 10.0649 14.2026L13.1386 11.2101C13.3716 10.984 13.5075 10.6761 13.5176 10.3516C13.5276 10.027 13.411 9.71136 13.1924 9.4713L8.57361 4.3913C8.35492 4.1505 8.05096 4.00443 7.72631 3.98413C7.40165 3.96382 7.08186 4.07088 6.83486 4.28255L4.12236 6.6088C3.90625 6.8257 3.77726 7.11437 3.75986 7.42005C3.74111 7.73255 3.38361 15.1351 9.12361 20.8776C14.1311 25.8838 20.4036 26.2501 22.1311 26.2501C22.3836 26.2501 22.5386 26.2426 22.5799 26.2401C22.8855 26.2229 23.174 26.0934 23.3899 25.8763L25.7149 23.1626C25.9274 22.9163 26.0352 22.5968 26.0154 22.2722C25.9955 21.9475 25.8495 21.6435 25.6086 21.4251Z" fill="black"/>
</svg>
